<svg xmlns="http://www.w3.org/2000/svg" width="36" height="36"><defs><style>.cls-1{fill:#fcfcfc;fill-rule:evenodd}</style></defs><path id="Rounded_Rectangle_1" data-name="Rounded Rectangle 1" class="cls-1" d="M1137.77 28.794l31.5 30.788a2.891 2.891 0 0 1 0 3.659 1.974 1.974 0 0 1-3.11 0l-31.51-30.787a2.917 2.917 0 0 1 0-3.659 1.984 1.984 0 0 1 3.12-.001z" transform="translate(-1134 -28)"/><path id="Rounded_Rectangle_1-2" data-name="Rounded Rectangle 1" class="cls-1" d="M1134.73 59.546l31.51-30.787a1.974 1.974 0 0 1 3.11 0 2.917 2.917 0 0 1 0 3.659L1137.84 63.2a1.974 1.974 0 0 1-3.11 0 2.917 2.917 0 0 1 0-3.654z" transform="translate(-1134 -28)"/></svg>